<svg xmlns="http://www.w3.org/2000/svg" xmlns:xlink="http://www.w3.org/1999/xlink" version="1.1" id="Layer_1" x="0px" y="0px" enable-background="new 0 0 1024 1024" xml:space="preserve" viewBox="282.62 354.91 460.16 332.77">
<path fill="#000000" opacity="1.000000" stroke="none" d=" M431.021942,354.907379   C469.568451,355.212189 507.633728,354.369293 545.840759,356.382324   C538.003052,359.392029 531.607544,365.351532 522.615906,365.313049   C490.793610,365.176849 458.970215,365.278503 427.147369,365.338531   C425.052002,365.342499 422.812744,364.744324 419.982056,366.794678   C462.255981,458.008362 504.459625,549.429260 545.993896,641.086243   C543.279541,642.810974 541.059814,642.277588 538.957703,642.279968   C502.302979,642.322144 465.647766,642.409851 428.993988,642.226624   C423.406128,642.198730 418.824463,643.501038 414.200836,646.710876   C391.517395,662.458313 367.452026,675.576111 340.862335,683.589478   C334.385071,685.541504 327.854553,687.369385 321.134216,687.674194   C320.068146,685.321472 321.615143,684.180725 322.413025,682.820923   C333.428650,664.046997 342.590088,644.579407 346.181549,622.818298   C346.888519,618.534668 345.917816,616.198914 342.503662,613.664185   C310.755035,590.093323 290.107239,559.350098 284.420715,519.827332   C276.987274,468.163422 292.557770,424.444336 332.032471,389.903381   C354.349365,370.375824 380.736847,359.527771 410.080017,355.941803   C416.836517,355.116119 423.707581,355.228241 431.021942,354.907379  M401.839417,411.568909   C391.501984,434.678528 381.183350,457.796539 370.822540,480.895660   C356.371765,513.113159 341.987244,545.361145 327.319733,577.479858   C325.009460,582.538879 325.657532,585.881775 329.519257,589.773499   C336.834137,597.145203 344.714569,603.763733 353.260925,609.595764   C355.727020,611.278564 356.732025,612.989929 356.518372,616.136780   C355.305359,634.004700 350.239075,650.766907 342.717590,666.901062   C341.942139,668.564392 340.400909,670.167725 341.155975,672.430420   C344.122162,672.429504 346.487152,671.098328 348.948090,670.206360   C371.839722,661.908997 392.658508,649.741455 412.458740,635.764404   C415.655212,633.507996 418.772461,632.553589 422.609009,632.570740   C444.106293,632.666565 465.605804,632.722656 487.101166,632.484253   C492.945923,632.419434 498.926544,633.035522 505.035034,631.578186   C504.606476,630.249634 504.430908,629.443420 504.097290,628.709106   C491.764771,601.566589 479.382996,574.446289 467.120453,547.272156   C465.735107,544.202148 463.763031,543.212891 460.518860,543.286499   C452.582733,543.466797 444.639771,543.345337 435.557098,543.345337   C440.345642,532.220520 442.474518,521.790344 438.949707,511.202637   C442.317047,508.788879 446.038513,511.039246 448.926392,509.141235   C447.842407,502.698303 406.714233,411.751862 403.572998,408.942841   C403.093079,409.632538 402.624603,410.305786 401.839417,411.568909  M365.782837,413.375824   C371.829254,400.346313 377.875641,387.316833 384.060944,373.988068   C361.274017,371.270172 315.798798,412.971649 301.613892,448.426270   C289.194366,479.468567 290.429291,537.102844 304.565521,547.597046   C324.936310,502.961823 345.218994,458.519653 365.782837,413.375824  z"/>
<path fill="#000000" opacity="1.000000" stroke="none" d=" M684.595642,584.373169   C677.129883,574.497803 677.129822,574.497742 684.263123,565.244446   C726.993347,509.815186 707.714355,429.473541 644.673523,400.262512   C605.947205,382.317993 557.401794,391.688232 526.584534,422.955658   C512.422119,437.324921 503.073273,454.295319 498.411499,473.891571   C498.185883,474.839996 497.843506,475.761871 497.525543,476.685760   C497.485748,476.801361 497.261414,476.853485 497.001160,477.006348   C494.930267,476.771729 494.880432,474.752960 494.242737,473.396637   C489.068665,462.392670 484.183594,451.247711 478.780548,440.359009   C476.588654,435.941620 476.891205,432.387512 479.341888,428.274689   C501.814636,390.559326 534.490662,367.128998 577.762085,359.874084   C624.520569,352.034637 665.687195,364.827728 699.936462,397.654510   C722.407593,419.192322 735.844849,445.982788 740.150757,476.844574   C746.022034,518.927063 735.621521,556.742432 708.604797,589.759888   C705.350891,593.736511 701.783630,597.442871 697.199707,601.101868   C692.952942,595.467102 688.880493,590.063599 684.595642,584.373169  z"/>
<path fill="#000000" opacity="1.000000" stroke="none" d=" M672.631836,650.374878   C667.229797,644.677185 661.990967,639.308716 656.983521,633.732422   C655.011597,631.536438 653.224915,631.139587 650.435852,632.129517   C632.658264,638.439331 614.317627,641.193726 595.454468,640.325073   C583.592590,639.778809 572.012207,637.618835 560.634033,634.273254   C558.620117,633.681091 557.017273,632.730530 556.085815,630.732666   C548.836365,615.184021 541.553101,599.651245 534.303955,584.102539   C534.196106,583.871094 534.389648,583.499146 534.589966,582.338318   C566.251770,606.232483 600.563782,613.243042 639.279236,599.883240   C629.234680,584.912415 618.186768,571.918884 607.652344,558.763977   C608.832275,556.649597 610.488647,557.122925 611.892151,557.118225   C622.891052,557.081482 633.890625,557.170776 644.888733,557.073364   C648.179382,557.044250 650.410583,558.184631 652.433167,560.886841   C681.686584,599.968140 711.045776,638.970276 740.360657,678.005554   C741.122803,679.020447 741.671082,680.195984 742.784302,682.086792   C713.913208,682.496338 692.186035,669.279785 672.631836,650.374878  z"/>
<path fill="#000000" opacity="1.000000" stroke="none" d=" M590.964111,492.280945   C595.164307,485.288605 596.370911,477.404266 600.267761,469.388580   C603.650208,475.837738 605.265442,481.731812 607.195557,487.451965   C608.473145,491.238342 610.227661,493.264008 614.575439,493.216248   C621.008362,493.145569 627.448303,493.717224 634.607178,494.048828   C632.006104,498.203705 628.159485,499.943115 624.990479,502.334747   C614.726562,510.081085 614.683899,510.001923 618.215332,522.419922   C619.242310,526.031189 620.163574,529.672546 620.164062,534.103516   C615.294006,530.811157 610.145081,527.856079 605.635254,524.127930   C601.447876,520.666321 598.319153,521.194275 594.276245,524.328857   C589.798889,527.800293 585.233643,531.360474 578.630310,534.358154   C580.632080,527.513550 581.751831,521.807190 583.985168,516.576233   C586.218750,511.344940 584.712402,508.447449 580.290710,505.604797   C575.456909,502.497253 571.036072,498.747223 565.386292,494.485992   C574.648682,492.638763 582.871948,494.873169 590.964111,492.280945  z"/>
<path fill="#000000" opacity="1.000000" stroke="none" d=" M372.605347,530.973389   C368.698425,513.421265 379.267975,496.661102 396.144562,493.094788   C413.009216,489.531006 429.126251,499.871338 432.753387,516.582214   C436.415527,533.454590 425.933228,550.151428 409.365448,553.835632   C393.440948,557.376831 377.982574,547.914917 372.605347,530.973389  M378.639099,514.643127   C378.329651,516.098877 378.016998,517.553894 377.711304,519.010437   C376.089081,526.739258 377.693298,534.487915 382.621765,539.861694   C389.450867,547.307983 398.327454,551.172852 409.351074,548.130615   C418.476990,545.612183 428.336182,534.843323 428.227692,525.500793   C428.134583,517.481567 425.981720,510.572205 419.714386,504.680420   C413.384949,498.730194 405.825745,496.833160 398.337769,498.169403   C389.618683,499.725342 382.061829,504.652466 378.990082,514.006348   C378.990082,514.006348 379.011780,513.975220 378.639099,514.643127  z"/>
<path fill="#000000" opacity="1.000000" stroke="none" d=" M378.977173,514.020630   C381.878418,513.531250 384.299713,515.775208 387.413757,515.564636   C386.707001,512.948669 383.647339,512.356262 382.711639,509.521729   C386.538849,509.703552 388.832123,512.609070 392.217255,513.668701   C390.711456,510.650818 388.102966,508.460297 387.082672,504.727844   C390.437378,505.696472 391.447174,508.967834 394.269562,509.864410   C394.806152,506.971161 392.057831,504.869659 392.980530,501.699768   C395.629700,503.729401 396.430847,506.661896 398.385956,509.629150   C398.596191,506.205994 397.370300,503.246063 398.336975,499.826538   C401.419495,502.522308 400.491882,506.157471 402.302673,508.858276   C403.400482,505.966736 402.869019,502.606903 405.016541,499.360504   C406.893555,503.200653 405.745819,506.551727 405.278259,511.093994   C407.288391,506.861511 408.020142,503.301331 410.805756,500.133209   C412.061432,503.802002 409.380005,506.335999 410.014191,509.274170   C411.867035,507.371826 413.810791,505.376129 416.103607,503.022064   C417.371094,506.102509 414.201996,507.591156 414.930603,510.094574   C416.885345,510.905060 418.215179,507.923004 420.524658,508.926727   C419.751709,511.754669 416.629639,512.501831 415.317932,515.349060   C418.308350,514.509583 421.000519,513.753845 424.867371,512.668274   C421.472504,517.121521 417.189178,517.689453 414.062531,519.631104   C417.842346,519.631104 421.899750,519.631104 427.477203,519.631104   C422.706909,522.155762 418.709351,522.148987 415.030304,523.486023   C418.774780,524.362732 422.649933,524.048096 426.756714,526.191162   C422.766235,528.128845 419.430969,526.866638 415.218903,526.560730   C419.076782,528.674438 422.219391,530.396240 426.164764,532.557861   C422.296265,533.902649 420.166626,531.159424 417.333282,531.684814   C417.122101,534.212463 420.589325,534.830383 420.505890,537.747803   C417.596252,537.287720 415.800842,535.187256 413.059082,533.629028   C413.695984,537.442566 416.576202,539.611877 417.732208,543.043335   C414.601532,543.234802 414.136505,539.495056 411.634155,539.439880   C410.169983,541.242981 412.559570,543.257935 411.217834,545.247314   C408.744812,543.775391 408.466644,540.822327 406.689270,538.737976   C405.791473,541.473083 407.061310,544.223877 405.289276,547.492554   C402.950562,543.340027 403.333771,539.212036 402.449158,534.704163   C402.075256,538.974243 401.896393,542.641602 399.768646,546.751282   C397.997894,543.797485 399.014282,541.281433 398.427917,538.453796   C396.872375,540.868591 395.528229,542.955261 393.862183,545.541626   C392.381622,542.332581 395.220795,540.083557 394.347321,537.490540   C391.270081,537.918945 391.170471,542.115356 387.716919,542.514160   C387.675140,539.521667 390.136017,537.758606 390.916931,534.705750   C388.400208,536.053162 386.221649,537.219604 383.490082,538.682068   C383.653412,535.206970 387.269775,534.533630 387.584351,531.878357   C385.278809,531.254700 383.251251,533.589966 380.695984,532.439758   C382.222717,529.864014 385.287811,529.731262 387.293060,527.755859   C384.966278,526.651550 382.311920,528.162903 379.822388,526.453979   C382.537567,524.133667 385.924500,524.657043 388.920624,523.530457   C385.491699,522.608704 381.794617,523.154114 378.265991,520.751770   C381.058563,518.937256 383.862854,520.488098 386.420807,519.483276   C384.295044,517.130554 380.950409,517.095886 379.195953,514.264221   C379.011780,513.975220 378.990082,514.006348 378.977173,514.020630  z"/>
</svg>