<svg xmlns="http://www.w3.org/2000/svg" viewBox="0 0 100 100" fill="none">
  <defs>
    <linearGradient id="bgGrad" x1="0%" y1="0%" x2="100%" y2="100%">
      <stop offset="0%" style="stop-color:#1e40af;stop-opacity:1" />
      <stop offset="50%" style="stop-color:#7c3aed;stop-opacity:1" />
      <stop offset="100%" style="stop-color:#4338ca;stop-opacity:1" />
    </linearGradient>
    <linearGradient id="shieldGrad" x1="0%" y1="0%" x2="100%" y2="100%">
      <stop offset="0%" style="stop-color:#fbbf24;stop-opacity:1" />
      <stop offset="100%" style="stop-color:#f59e0b;stop-opacity:1" />
    </linearGradient>
  </defs>
  
  <!-- Background Circle -->
  <circle cx="50" cy="50" r="48" fill="url(#bgGrad)" stroke="#ffffff" stroke-width="2"/>
  
  <!-- Shield Shape -->
  <path d="M50 15 L70 25 L70 45 Q70 60 50 75 Q30 60 30 45 L30 25 Z" fill="url(#shieldGrad)" stroke="#ffffff" stroke-width="1.5"/>
  
  <!-- V Shape (for VEER) -->
  <path d="M40 30 L45 45 L50 35 L55 45 L60 30" stroke="#1e40af" stroke-width="3" fill="none" stroke-linecap="round" stroke-linejoin="round"/>
  
  <!-- Geometric Pattern -->
  <polygon points="50,40 55,50 50,60 45,50" fill="#1e40af" opacity="0.8"/>
  
  <!-- Stars for Excellence -->
  <polygon points="42,25 43,28 46,28 44,30 45,33 42,31 39,33 40,30 38,28 41,28" fill="#ffffff" opacity="0.9"/>
  <polygon points="58,25 59,28 62,28 60,30 61,33 58,31 55,33 56,30 54,28 57,28" fill="#ffffff" opacity="0.9"/>
  
  <!-- Bottom Banner -->
  <rect x="35" y="65" width="30" height="8" rx="2" fill="#ffffff" opacity="0.9"/>
  <text x="50" y="71" text-anchor="middle" font-family="Arial, sans-serif" font-size="6" font-weight="bold" fill="#1e40af">NIRMAN</text>
</svg>